<?xml version="1.0" encoding="utf-8"?>
<!-- Generator: Adobe Illustrator 15.0.0, SVG Export Plug-In . SVG Version: 6.00 Build 0)  -->
<!DOCTYPE svg PUBLIC "-//W3C//DTD SVG 1.1//EN" "http://www.w3.org/Graphics/SVG/1.1/DTD/svg11.dtd">
<svg version="1.1" id="Ebene_1" xmlns="http://www.w3.org/2000/svg" xmlns:xlink="http://www.w3.org/1999/xlink" x="0px" y="0px"
	 width="752.63px" height="286.53px" viewBox="0 0 752.63 286.53" enable-background="new 0 0 752.63 286.53" xml:space="preserve">
<g>
	<g>
		<g>
			<circle fill="none" cx="142.732" cy="142.732" r="138.897"/>
			<path d="M142.732-0.531C63.61-0.531-0.531,63.61-0.531,142.732c0,79.12,64.141,143.263,143.263,143.263
				s143.263-64.143,143.263-143.263C285.995,63.61,221.854-0.531,142.732-0.531z M142.732,281.63
				c-76.711,0-138.897-62.187-138.897-138.897c0-76.711,62.187-138.897,138.897-138.897c76.711,0,138.898,62.186,138.898,138.897
				C281.63,219.443,219.443,281.63,142.732,281.63z"/>
		</g>
	</g>
	<path d="M341.158,195.438V130.86c0-23.084,14.757-38.571,35.359-38.571c22.796,0,36.237,17.532,36.237,38.279
		c0,19.579-15.78,34.773-33.753,34.773c-7.014,0-13.735-1.461-19.871-4.967v-13.443c4.676,3.216,11.835,6.138,17.679,6.138
		c13.882,0,23.086-9.643,23.086-24.107c0-14.318-9.644-24.4-23.379-24.4c-12.273,0-22.5,9.351-22.5,28.636v62.242H341.158
		L341.158,195.438z"/>
	<path d="M483.033,93.75v40.909c0,18.41-12.859,30.682-29.953,30.682c-17.096,0-29.953-12.272-29.953-30.682V93.75h12.857v40.909
		c0,10.811,7.891,18.41,17.096,18.41s17.094-7.599,17.094-18.41V93.75H483.033L483.033,93.75z"/>
	<path d="M495.453,195.438V130.86c0-23.084,14.756-38.571,35.357-38.571c22.793,0,36.235,17.532,36.235,38.279
		c0,19.579-15.779,34.773-33.752,34.773c-7.014,0-13.733-1.461-19.871-4.967v-13.443c4.676,3.216,11.836,6.138,17.68,6.138
		c13.881,0,23.086-9.643,23.086-24.107c0-14.318-9.643-24.4-23.378-24.4c-12.274,0-22.5,9.351-22.5,28.636v62.242H495.453
		L495.453,195.438z"/>
	<path d="M591.155,70.374c4.967,0,7.744,3.798,7.744,7.743c0,3.945-2.777,7.744-7.744,7.744c-4.969,0-7.744-3.799-7.744-7.744
		C583.411,74.172,586.187,70.374,591.155,70.374L591.155,70.374z M584.726,163.88V93.75h12.857v70.13H584.726L584.726,163.88z"/>
	<polygon points="621.255,163.88 621.255,61.607 634.112,61.607 634.112,163.88 621.255,163.88 	"/>
	<polygon points="653.688,163.88 653.688,61.607 666.546,61.607 666.546,163.88 653.688,163.88 	"/>
	<path d="M703.655,140.797l-5.26-10.229l34.629-19.286c-4.385-4.383-8.037-6.721-15.928-6.721c-13.295,0-22.938,9.936-22.938,24.253
		c0,14.321,9.643,24.254,22.938,24.254c15.197,0,20.896-9.06,23.525-21.917l13.004,1.607c-1.461,18.554-16.363,32.582-36.529,32.582
		c-19.432,0-36.381-14.904-36.381-36.527s16.949-36.525,36.381-36.525c16.365,0,27.324,8.62,33.9,22.208L703.655,140.797
		L703.655,140.797z"/>
	<path d="M521.05,195.125v-26.999h3.395v15.352h1.427c1.429,0,2.354-0.539,2.855-1.39l3.2-5.476h3.857l-2.429,4.165
		c-0.733,1.273-1.853,3.123-2.894,3.393v0.079c2.738,0.539,4.244,2.157,4.244,5.438v5.438h-3.396v-5.053
		c0-2.314-1.233-3.355-3.009-3.355h-3.857v8.408H521.05L521.05,195.125z"/>
	<path d="M541.531,170.44c1.312,0,2.044,1,2.044,2.042c0,1.044-0.731,2.044-2.044,2.044c-1.312,0-2.045-1-2.045-2.044
		C539.486,171.44,540.22,170.44,541.531,170.44L541.531,170.44z M539.835,195.125v-18.513h3.395v18.513H539.835L539.835,195.125z"/>
	<path d="M548.63,195.125v-10.801c0-4.857,3.393-8.098,7.908-8.098c4.512,0,7.905,3.24,7.905,8.098v10.801h-3.394v-10.801
		c0-2.854-2.084-4.857-4.512-4.857c-2.432,0-4.516,2.003-4.516,4.857v10.801H548.63L548.63,195.125z"/>
	<path d="M576.903,176.227c5.131,0,9.605,3.933,9.605,9.641c0,5.711-4.475,9.644-9.605,9.644s-9.604-3.933-9.604-9.644
		C567.299,180.159,571.772,176.227,576.903,176.227L576.903,176.227z M576.903,192.271c3.512,0,6.057-2.621,6.057-6.403
		c0-3.779-2.545-6.4-6.057-6.4c-3.508,0-6.055,2.621-6.055,6.4C570.849,189.649,573.396,192.271,576.903,192.271L576.903,192.271z"
		/>
	<path d="M603.714,170.44c1.311,0,2.043,1,2.043,2.042c0,1.044-0.732,2.044-2.043,2.044c-1.314,0-2.045-1-2.045-2.044
		C601.669,171.44,602.399,170.44,603.714,170.44L603.714,170.44z M602.015,195.125v-18.513h3.395v18.513H602.015L602.015,195.125z"
		/>
	<path d="M610.81,195.125v-10.801c0-4.857,3.395-8.098,7.908-8.098c4.512,0,7.908,3.24,7.908,8.098v10.801h-3.396v-10.801
		c0-2.854-2.082-4.857-4.512-4.857c-2.432,0-4.514,2.003-4.514,4.857v10.801H610.81L610.81,195.125z"/>
	<path d="M658.989,168.126v17.201c0,6.094-3.898,10.184-9.336,10.184c-6.018,0-9.566-4.629-9.566-10.104
		c0-5.168,4.166-9.18,8.91-9.18c1.852,0,3.627,0.386,5.246,1.312v3.546c-1.234-0.846-3.125-1.617-4.668-1.617
		c-3.662,0-6.094,2.543-6.094,6.362c0,3.779,2.545,6.441,6.172,6.441c3.24,0,5.939-2.468,5.939-7.561v-16.584H658.989
		L658.989,168.126z"/>
	<path d="M667.745,189.031l-1.391-2.7l9.143-5.093c-1.158-1.157-2.121-1.771-4.203-1.771c-3.512,0-6.057,2.621-6.057,6.4
		c0,3.782,2.545,6.403,6.057,6.403c4.01,0,5.516-2.393,6.209-5.786l3.434,0.424c-0.385,4.898-4.32,8.603-9.643,8.603
		c-5.131,0-9.605-3.933-9.605-9.644c0-5.708,4.475-9.641,9.605-9.641c4.318,0,7.213,2.273,8.947,5.861L667.745,189.031
		L667.745,189.031z"/>
	<path d="M683.675,176.612h3.24v2.12h0.078c1.156-1.812,2.736-2.506,5.014-2.506h0.771v3.24h-0.502
		c-3.279,0-5.207,2.003-5.207,7.018v8.641h-3.395V176.612L683.675,176.612z"/>
	<path d="M720.976,176.612v10.798c0,4.86-3.395,8.101-7.908,8.101s-7.908-3.24-7.908-8.101v-10.798h3.395v10.798
		c0,2.854,2.086,4.86,4.514,4.86c2.432,0,4.514-2.007,4.514-4.86v-10.798H720.976L720.976,176.612z"/>
	<path d="M724.446,195.125v-10.801c0-4.857,3.396-8.098,7.908-8.098c4.514,0,7.908,3.24,7.908,8.098v10.801h-3.395v-10.801
		c0-2.854-2.082-4.857-4.514-4.857c-2.43,0-4.512,2.003-4.512,4.857v10.801H724.446L724.446,195.125z"/>
	<path d="M747.358,170.44c1.312,0,2.045,1,2.045,2.042c0,1.044-0.732,2.044-2.045,2.044c-1.311,0-2.043-1-2.043-2.044
		C745.315,171.44,746.048,170.44,747.358,170.44L747.358,170.44z M745.663,195.125v-18.513h3.393v18.513H745.663L745.663,195.125z"
		/>
	<circle cx="142.732" cy="142.732" r="19.842"/>
	<path d="M236.76,72.979l13.126-9.785c-21.399-28.783-54.122-48.64-91.576-52.996l-1.911,16.259
		C189.27,30.28,217.986,47.712,236.76,72.979z"/>
	<path d="M259.803,142.729c0,16.478-3.411,32.155-9.553,46.377l15.039,6.476c6.999-16.208,10.885-34.075,10.885-52.853
		c0-18.686-3.847-36.471-10.782-52.617l-15.039,6.476C256.432,110.748,259.803,126.344,259.803,142.729z"/>
	<path d="M48.724,212.508l-13.125,9.784c21.411,28.782,54.146,48.633,91.611,52.975l1.911-16.258
		C96.238,255.2,67.509,237.774,48.724,212.508z"/>
	<path d="M25.662,142.729c0-16.385,3.372-31.981,9.45-46.141l-15.039-6.475c-6.935,16.145-10.782,33.931-10.782,52.616
		c0,18.683,3.846,36.466,10.778,52.609l15.039-6.476C29.032,174.706,25.662,159.112,25.662,142.729z"/>
	<path d="M156.341,259.009l1.911,16.258c37.327-4.324,69.96-24.041,91.375-52.65l-13.125-9.785
		C217.712,237.925,189.084,255.218,156.341,259.009z"/>
	<path d="M129.066,26.457l-1.911-16.259C89.7,14.554,56.979,34.411,35.579,63.194l13.125,9.785
		C67.478,47.712,96.194,30.28,129.066,26.457z"/>
	<path d="M241.205,100.527l-10.903,4.695c4.937,11.511,7.675,24.189,7.675,37.507c0,13.41-2.777,26.169-7.778,37.743l10.903,4.694
		c5.622-13.014,8.743-27.36,8.743-42.438C249.845,127.743,246.763,113.479,241.205,100.527z"/>
	<path d="M66.225,199.462l-9.516,7.094c17.188,23.127,43.48,39.078,73.575,42.562l1.385-11.787
		C104.897,234.233,81.508,220.04,66.225,199.462z"/>
	<path d="M55.163,105.222l-10.903-4.694c-5.558,12.951-8.64,27.215-8.64,42.202c0,14.983,3.081,29.246,8.637,42.194l10.902-4.694
		c-4.935-11.509-7.671-24.185-7.671-37.5C47.488,129.411,50.226,116.733,55.163,105.222z"/>
	<path d="M219.26,86.024l9.516-7.094c-17.177-23.128-43.456-39.085-73.54-42.583l-1.385,11.788
		C180.611,51.247,203.987,65.446,219.26,86.024z"/>
	<path d="M153.793,237.331l1.385,11.787c29.956-3.467,56.146-19.285,73.339-42.239l-9.516-7.094
		C203.713,220.189,180.426,234.25,153.793,237.331z"/>
	<path d="M131.614,48.135l-1.385-11.788c-30.084,3.499-56.363,19.456-73.54,42.584l9.516,7.094
		C81.478,65.446,104.853,51.247,131.614,48.135z"/>
	<path d="M134.164,69.826l-0.977-8.308C110.196,64.192,90.113,76.386,77,94.072l6.708,5.001
		C95.479,83.184,113.514,72.228,134.164,69.826z"/>
	<path d="M83.728,186.413l-6.708,5.001c13.125,17.687,33.22,29.874,56.223,32.534l0.977-8.309
		C113.559,213.252,95.511,202.303,83.728,186.413z"/>
	<path d="M151.244,215.64l0.977,8.309c22.863-2.644,42.858-14.697,55.988-32.209l-6.709-5.002
		C189.712,202.453,171.765,213.269,151.244,215.64z"/>
	<path d="M201.756,99.073l6.708-5.001c-13.114-17.687-33.196-29.88-56.187-32.554l-0.977,8.308
		C171.95,72.228,189.984,83.184,201.756,99.073z"/>
	<path d="M75.217,113.857l-7.685-3.309c-4.233,9.878-6.584,20.753-6.584,32.181c0,11.424,2.35,22.298,6.581,32.174l7.686-3.31
		c-3.793-8.861-5.899-18.616-5.899-28.864C69.315,132.478,71.422,122.721,75.217,113.857z"/>
	<path d="M217.933,110.548l-7.686,3.31c3.795,8.863,5.902,18.62,5.902,28.872c0,10.343-2.149,20.181-6.009,29.106l7.686,3.31
		c4.297-9.941,6.69-20.897,6.69-32.416C224.517,131.302,222.166,120.426,217.933,110.548z"/>
	<path d="M101.228,173.368l-4.703,3.506c9.223,12.46,23.365,21.049,39.557,22.916l0.685-5.824
		C122.216,192.29,109.51,184.568,101.228,173.368z"/>
	<path d="M184.256,112.119l4.703-3.506c-9.211-12.461-23.34-21.055-39.521-22.938l-0.685,5.825
		C163.292,93.191,175.985,100.918,184.256,112.119z"/>
	<path d="M148.697,193.967l0.685,5.823c16.053-1.851,30.093-10.306,39.321-22.592L184,173.691
		C175.712,184.719,163.107,192.307,148.697,193.967z"/>
	<path d="M136.711,91.5l-0.685-5.825c-16.181,1.882-30.31,10.477-39.521,22.938l4.703,3.506
		C109.479,100.918,122.172,93.191,136.711,91.5z"/>
	<path d="M195.586,120.17l-5.389,2.32c2.653,6.214,4.125,13.054,4.125,20.239c0,7.275-1.514,14.195-4.231,20.473l5.389,2.32
		c3.024-6.989,4.709-14.693,4.709-22.793C200.189,134.72,198.546,127.097,195.586,120.17z"/>
	<path d="M95.267,122.491l-5.388-2.32c-2.96,6.926-4.603,14.55-4.603,22.559c0,8.006,1.642,15.627,4.6,22.552l5.388-2.32
		c-2.651-6.213-4.122-13.05-4.122-20.231C91.142,135.545,92.614,128.706,95.267,122.491z"/>
	<path d="M115.317,131.124l-4.01-1.727c-1.74,4.096-2.704,8.602-2.704,13.332c0,4.728,0.962,9.23,2.7,13.324l4.01-1.727
		c-1.51-3.563-2.345-7.483-2.345-11.598C112.969,138.612,113.805,134.69,115.317,131.124z"/>
	<path d="M146.149,172.292l0.509,4.335c9.522-1.092,17.854-6.097,23.34-13.373l-3.5-2.608
		C161.713,166.984,154.45,171.343,146.149,172.292z"/>
	<path d="M166.756,125.165l3.5-2.609c-5.47-7.451-13.89-12.594-23.541-13.716l-0.509,4.334
		C154.635,114.154,161.986,118.652,166.756,125.165z"/>
	<path d="M139.258,113.174l-0.509-4.334c-9.65,1.123-18.07,6.266-23.541,13.716l3.5,2.609
		C123.478,118.652,130.83,114.154,139.258,113.174z"/>
	<path d="M174.158,129.397l-4.01,1.727c1.512,3.566,2.348,7.488,2.348,11.606c0,4.209-0.878,8.211-2.454,11.84l4.01,1.727
		c1.804-4.158,2.81-8.744,2.81-13.566C176.861,137.999,175.897,133.493,174.158,129.397z"/>
	<path d="M118.728,160.321l-3.5,2.609c5.481,7.45,13.915,12.588,23.576,13.695l0.51-4.334
		C130.875,171.326,123.509,166.834,118.728,160.321z"/>
</g>
</svg>
